# xmcd
#
# Track frame offsets:
#   150
#   17261
#   32431
#   49554
#   71336
#   85630
#   99267
#   113743
#   129498
#   141703
#   159852
#   178528
#   190671
#   203578
#
# Disc length: 2881 seconds
#
# Revision: 0
# Processed by: cddbd v1.5PL3 Copyright (c) Steve Scherf et al.
# Submitted via: uFREEDB 1.6.0
#
DISCID=a10b3f0e
DTITLE=Mahal, Taj - Senior Blues
DYEAR=1997
DGENRE=Blues
TTITLE0=Queen Bee
TTITLE1=Think
TTITLE2=Irresistable You
TTITLE3=Having a Real Bad Day
TTITLE4=Senor Blues
TTITLE5=Sophisticated Mama
TTITLE6=Oh Lord, Things Are Gettin' Crazy up Here
TTITLE7=I Miss You Baby
TTITLE8=You Rascal You
TTITLE9=Mind Your Own Business
TTITLE10=21st Century Gypsy Singin' Lover Man
TTITLE11=At Last (I Found A Love)
TTITLE12=Mr. Pitiful
TTITLE13=Bonus
EXTD=
EXTT0=
EXTT1=
EXTT2=
EXTT3=
EXTT4=
EXTT5=
EXTT6=
EXTT7=
EXTT8=
EXTT9=
EXTT10=
EXTT11=
EXTT12=
EXTT13=
PLAYORDER=
